<svg width="0" height="0" class="hidden">
  <symbol xmlns="http://www.w3.org/2000/svg" viewBox="0 0 24 24" id="f">
    <g clip-path="url(#clip0_2_1211)">
      <path
        d="M24 22.6921C24 23.4114 23.4114 24 22.6921 24H16.545V14.7139H19.6839L20.1417 11.1172H16.545V8.82834C16.545 7.78202 16.8065 7.06267 18.3106 7.06267H20.2071V3.79292C19.8801 3.72752 18.7684 3.66213 17.3951 3.66213C14.6485 3.66213 12.752 5.3624 12.752 8.43597V11.1172H9.61308V14.7139H12.752V24H1.3079C0.588556 24 0 23.4114 0 22.6921V1.3079C0 0.588556 0.588556 0 1.3079 0H22.6921C23.4114 0 24 0.588556 24 1.3079V22.6921Z"></path>
    </g>
    <defs>
      <clipPath id="clip0_2_1211">
        <rect width="24" height="24" fill="white"></rect>
      </clipPath>
    </defs>
  </symbol>
  <symbol fill="none" xmlns="http://www.w3.org/2000/svg" viewBox="0 0 68 68" id="Fit">
    <path
      d="M53.8359 60.0312H47.8594V55.7812H50.5223C51.6225 55.7812 52.5145 54.8893 52.5145 53.7891C52.5145 52.6888 51.6225 51.7969 50.5223 51.7969H47.8594V47.8125H53.1785C54.2787 47.8125 55.1707 46.9205 55.1707 45.8203C55.1707 44.7201 54.2787 43.8281 53.1785 43.8281H47.8594V39.8438H50.5223C51.6225 39.8438 52.5145 38.9518 52.5145 37.8516C52.5145 36.7513 51.6225 35.8594 50.5223 35.8594H47.8594V31.875H53.1785C54.2787 31.875 55.1707 30.983 55.1707 29.8828C55.1707 28.7826 54.2787 27.8906 53.1785 27.8906H47.8594V23.9062H50.5223C51.6225 23.9062 52.5145 23.0143 52.5145 21.9141C52.5145 20.8138 51.6225 19.9219 50.5223 19.9219H47.8594V15.9375H53.1785C54.2787 15.9375 55.1707 15.0455 55.1707 13.9453C55.1707 12.8451 54.2787 11.9531 53.1785 11.9531H47.8594V7.96875H50.5223C51.6225 7.96875 52.5145 7.07678 52.5145 5.97656C52.5145 4.87634 51.6225 3.98438 50.5223 3.98438H47.8594V1.99219C47.8594 0.891969 46.9674 0 45.8672 0C44.767 0 43.875 0.891969 43.875 1.99219V60.0312H36.6821L37.7778 42.5H37.9051C39.0053 42.5 39.8973 41.608 39.8973 40.5078V27.2232C39.8973 22.8007 36.9982 19.0441 33.0014 17.7493C34.7475 16.7048 35.9195 14.7956 35.9195 12.6172C35.9195 9.32171 33.2384 6.64062 29.943 6.64062C26.6475 6.64062 23.9664 9.32171 23.9664 12.6172C23.9664 14.7946 25.1373 16.703 26.882 17.7479C22.8831 19.0415 19.982 22.7991 19.982 27.2232V40.5078C19.982 41.608 20.874 42.5 21.9742 42.5H22.0948L23.1905 60.0312H13.9922C12.892 60.0312 12 60.9232 12 62.0234V66.0078C12 67.108 12.892 68 13.9922 68C15.0924 68 15.9844 67.108 15.9844 66.0078V64.0156H51.8438V66.0078C51.8438 67.108 52.7357 68 53.8359 68C54.9362 68 55.8281 67.108 55.8281 66.0078V62.0234C55.8281 60.9232 54.9362 60.0312 53.8359 60.0312ZM29.943 10.625C31.0415 10.625 31.9352 11.5187 31.9352 12.6172C31.9352 13.7157 31.0415 14.6094 29.943 14.6094C28.8445 14.6094 27.9508 13.7157 27.9508 12.6172C27.9508 11.5187 28.8443 10.625 29.943 10.625ZM23.9664 27.2232C23.9664 23.9296 26.646 21.25 29.9398 21.25C33.2334 21.25 35.913 23.9296 35.913 27.2232V38.5156H23.9664V27.2232ZM26.0869 42.5H33.7856L32.6899 60.0312H27.1826L26.0869 42.5Z"
      fill="black"></path>
  </symbol>
  <symbol fill="none" xmlns="http://www.w3.org/2000/svg" viewBox="0 0 10 8" id="galochka">
    <path
      d="M9.44954 0.551587C8.80734 -0.184046 7.70642 -0.184046 7.06422 0.459633L3.66973 3.86193L2.93578 3.1263C2.29358 2.48262 1.19266 2.48262 0.550461 3.1263H0.458717C-0.183484 3.76998 -0.183484 4.87343 0.458717 5.5171L2.47707 7.54009C2.84404 7.90791 3.30275 7.99986 3.66973 7.99986C4.12844 7.99986 4.49542 7.81595 4.86239 7.54009L9.44954 2.94239C10.0917 2.29871 10.0917 1.19526 9.44954 0.551587Z"
      fill="#FEDB3F"></path>
  </symbol>
  <symbol xmlns="http://www.w3.org/2000/svg" viewBox="0 0 24 24" id="in">
    <g clip-path="url(#clip0_2_1212)">
      <path
        d="M21.1226 0H2.87738C1.3079 0 0 1.24251 0 2.81199V21.188C0 22.7575 1.3079 24 2.87738 24H21.1226C22.6921 24 24 22.7575 24 21.188V2.81199C24 1.24251 22.6921 0 21.1226 0ZM17.2643 3.72752C17.2643 3.33515 17.5913 3.00817 17.9837 3.00817H20.2725C20.6649 3.00817 20.9918 3.33515 20.9918 3.72752V5.95095C20.9918 6.34332 20.6649 6.6703 20.2725 6.6703H18.049C17.6567 6.6703 17.3297 6.34332 17.3297 5.95095L17.2643 3.72752ZM12.0327 7.38965C14.5831 7.38965 16.6757 9.41689 16.6757 11.9673C16.6757 14.5177 14.5831 16.545 12.0327 16.545C9.48229 16.545 7.38965 14.5177 7.38965 11.9673C7.38965 9.48229 9.48229 7.38965 12.0327 7.38965ZM21.7112 20.9918C21.7112 21.3842 21.3842 21.7112 20.9918 21.7112H3.00817C2.6158 21.7112 2.28883 21.3842 2.28883 20.9918V9.74387H5.23161C4.83924 10.3324 4.70845 11.3787 4.70845 12.0327C4.70845 16.0218 7.9782 19.2916 12.0327 19.2916C16.0872 19.2916 19.3569 16.0218 19.3569 12.0327C19.3569 11.3787 19.2916 10.3324 18.7684 9.74387H21.7766L21.7112 20.9918Z"></path>
    </g>
    <defs>
      <clipPath id="clip0_2_1212">
        <rect width="24" height="24" fill="white"></rect>
      </clipPath>
    </defs>
  </symbol>
  <symbol fill="none" xmlns="http://www.w3.org/2000/svg" viewBox="0 0 32 32" id="modal1">
    <path
      d="M11.0064 13.0953L11.0072 9L4 16.0096L11.0072 23.0185L11.0064 18.9232L20.992 18.9248V23.0185L28 16.0096L20.992 9V13.0953H11.0064Z"
      fill="#010002"></path>
  </symbol>
  <symbol fill="none" xmlns="http://www.w3.org/2000/svg" viewBox="0 0 32 32" id="modal2">
    <path
      d="M10.4085 17.4797L7.51327 14.5833L7.51498 24.4948L17.4258 24.4959L14.5295 21.6007L21.5914 14.541L24.4861 17.4356L24.4855 7.52421L14.5735 7.52307L17.4693 10.4189L10.4085 17.4797Z"
      fill="#010002"></path>
  </symbol>
  <symbol fill="none" xmlns="http://www.w3.org/2000/svg" viewBox="0 0 32 32" id="modal4">
    <path
      d="M24 26H23V22.727C23 21.099 22.307 19.541 21.097 18.453L19.404 16.93C19.137 16.689 18.99 16.359 18.99 16C18.99 15.641 19.137 15.311 19.404 15.071L21.097 13.548C22.307 12.458 23 10.901 23 9.273V6H24C24.553 6 25 5.552 25 5C25 4.448 24.553 4 24 4H8C7.447 4 7 4.448 7 5C7 5.552 7.447 6 8 6H9V9.273C9 10.901 9.693 12.459 10.903 13.547L12.596 15.07C12.863 15.311 13.01 15.641 13.01 16C13.01 16.359 12.863 16.689 12.596 16.929L10.903 18.452C9.693 19.542 9 21.099 9 22.727V26H8C7.447 26 7 26.448 7 27C7 27.552 7.447 28 8 28H24C24.553 28 25 27.552 25 27C25 26.448 24.553 26 24 26ZM12 22.829C12 22.094 12.286 21.404 12.806 20.884L15.47 18.22C15.763 17.927 16.238 17.927 16.531 18.22L19.195 20.884C19.715 21.404 20.001 22.094 20.001 22.829V26H12V22.829Z"
      fill="black"></path>
  </symbol>
  <symbol fill="none" xmlns="http://www.w3.org/2000/svg" viewBox="0 0 32 32" id="modal5">
    <path
      d="M26.983 25.137L24.8878 12.6207C24.6908 11.4406 23.6687 10.5781 22.4724 10.5781H19.3245C19.6937 9.93501 19.9047 9.19002 19.9047 8.39667C19.9047 5.97245 17.9328 4 15.5081 4C13.0838 4 11.1114 5.97245 11.1114 8.39667C11.1114 9.19002 11.3225 9.93501 11.6916 10.5781H8.54367C7.34689 10.5781 6.32532 11.4416 6.12828 12.6218L4.03366 25.1396C3.91461 25.8492 4.11476 26.5797 4.58006 27.1287C5.04588 27.6782 5.72901 28 6.44957 28H24.5686C25.2892 28 25.9723 27.6782 26.4381 27.1287C26.9029 26.5786 27.1025 25.8472 26.983 25.137ZM15.5086 6.56148C16.5203 6.56148 17.3438 7.38498 17.3438 8.39719C17.3438 9.40941 16.5203 10.2324 15.5086 10.2324C14.4964 10.2324 13.6729 9.40889 13.6729 8.39667C13.6729 7.38446 14.4964 6.56148 15.5086 6.56148Z"
      fill="black"></path>
  </symbol>
  <symbol viewBox="0 0 35 35" fill="none" xmlns="http://www.w3.org/2000/svg" id='materials'>
    <path
      d="M33.8298 12.4181H26.5562C26.5569 12.4117 26.5579 12.4054 26.5586 12.3991C27.405 11.6708 28.0815 10.8061 28.5729 9.82357C28.7304 9.50849 28.7136 9.13433 28.5284 8.8347C28.3432 8.53501 28.016 8.3526 27.6638 8.3526H26.0949C25.7545 7.38962 25.2576 6.50036 24.6109 5.69742C24.6938 4.58516 24.5607 3.4969 24.2137 2.45599C24.1023 2.12181 23.8258 1.86914 23.483 1.78823C23.1401 1.70726 22.7799 1.80971 22.5308 2.05872L21.4191 3.17037C20.5006 2.73129 19.5227 2.45416 18.4992 2.34311C17.7321 1.43955 16.848 0.724357 15.9218 0.261161C15.6067 0.103623 15.2326 0.120427 14.9328 0.30561C14.6333 0.490794 14.4509 0.817932 14.4509 1.17021V2.80684C13.4879 3.14719 12.5986 3.6442 11.7957 4.29082C10.6836 4.20795 9.59509 4.3411 8.55439 4.68809C8.22021 4.79948 7.96754 5.07601 7.88663 5.4188C7.80573 5.76159 7.90804 6.12192 8.15712 6.37094L9.26857 7.48245C8.82922 8.40159 8.55195 9.38016 8.4411 10.4045C7.76013 10.9905 7.18933 11.665 6.73623 12.4182H1.17022C0.608905 12.4182 0.153839 12.8732 0.153839 13.4345V17.5001C0.153839 18.0614 0.608905 18.5164 1.17022 18.5164H2.25435V33.8298C2.25435 34.3911 2.70942 34.8462 3.27073 34.8462H7.33623C7.89754 34.8462 8.35261 34.3911 8.35261 33.8298V30.3847L17.5 26.7258L26.6474 30.3847V33.8298C26.6474 34.3911 27.1024 34.8461 27.6638 34.8461H31.7293C32.2906 34.8461 32.7456 34.3911 32.7456 33.8298V18.5164H33.8298C34.3911 18.5164 34.8461 18.0613 34.8461 17.5V13.4345C34.8461 12.8732 34.3911 12.4181 33.8298 12.4181V12.4181ZM10.0399 11.7226C10.2717 11.5431 10.4147 11.2723 10.4322 10.9796C10.5 9.84511 10.8237 8.77921 11.3944 7.81155C11.6298 7.41232 11.5652 6.90433 11.2376 6.57658L10.9639 6.30291C11.3037 6.29247 11.6479 6.30921 11.9952 6.35318C12.286 6.39004 12.5787 6.29952 12.798 6.10471C13.6472 5.35029 14.631 4.82455 15.722 4.542C16.1704 4.426 16.4836 4.02141 16.4836 3.55822V3.15607C16.7255 3.39404 16.9585 3.65687 17.179 3.94173C17.3585 4.17353 17.6293 4.3165 17.922 4.33398C19.0564 4.40174 20.1223 4.72549 21.0901 5.29615C21.4894 5.53155 21.9973 5.46704 22.325 5.13936L22.5988 4.86562C22.6092 5.20542 22.5925 5.5497 22.5485 5.89697C22.5117 6.18785 22.6022 6.4805 22.797 6.69977C23.5514 7.54905 24.0772 8.53284 24.3597 9.62382C24.4758 10.0722 24.8804 10.3854 25.3436 10.3854H25.7272C25.4937 10.6338 25.2377 10.8659 24.9602 11.0808C24.7284 11.2603 24.5854 11.5311 24.5679 11.8238C24.556 12.023 24.5354 12.2214 24.5072 12.4182H20.3743C20.4871 12.1 20.5491 11.7581 20.5491 11.4018C20.5491 9.72051 19.1813 8.35267 17.5 8.35267C15.8187 8.35267 14.4509 9.72051 14.4509 11.4018C14.4509 11.7581 14.5129 12.1 14.6257 12.4182H9.27331C9.50687 12.1698 9.76239 11.9375 10.0399 11.7226ZM18.5164 11.4017C18.5164 11.9622 18.0604 12.4181 17.5 12.4181C16.9396 12.4181 16.4836 11.9622 16.4836 11.4017C16.4836 10.8413 16.9396 10.3854 17.5 10.3854C18.0604 10.3854 18.5164 10.8413 18.5164 11.4017ZM6.31985 32.8134H4.2871V18.5164H6.31985C6.31985 18.5094 6.31992 28.5516 6.31985 32.8134ZM8.35261 28.1953V23.0667L14.7633 25.631L8.35261 28.1953ZM26.6474 28.1953L20.2367 25.631L26.6474 23.0667V28.1953ZM26.6474 20.8774L17.5 24.5364L8.35261 20.8774V18.5164H26.6474V20.8774ZM30.7129 32.8134H28.6801C28.6801 31.0105 28.6801 20.6905 28.6801 18.5164H30.7129V32.8134ZM32.8134 16.4836H2.18659V14.4509H32.8134V16.4836Z"
      fill="currentColor" />
  </symbol>

  <symbol fill="none" xmlns="http://www.w3.org/2000/svg" viewBox="0 0 67 21" id="shape">
    <path fill-rule="evenodd" clip-rule="evenodd"
      d="M33.4998 -0.000976562C39.2989 -0.000976562 43.9998 4.70002 43.9998 10.4991C43.9998 16.2982 39.2989 20.9992 33.4998 20.9992C27.7009 20.9992 22.9999 16.2982 22.9999 10.4991C22.9999 4.70002 27.7009 -0.000976562 33.4998 -0.000976562ZM60.4999 3.99937C64.0897 3.99937 66.9999 6.90937 66.9999 10.4991C66.9999 14.0893 64.0897 16.9996 60.4999 16.9996C56.91 16.9996 53.9998 14.0893 53.9998 10.4991C53.9998 6.90937 56.91 3.99937 60.4999 3.99937ZM12.9999 10.4991C12.9999 6.90937 10.0897 3.99937 6.49994 3.99937C2.90999 3.99937 -0.00012207 6.90937 -0.00012207 10.4991C-0.00012207 14.0893 2.90999 16.9996 6.49994 16.9996C10.0897 16.9996 12.9999 14.0893 12.9999 10.4991Z"
      fill="#F2F5F4"></path>
  </symbol>
  <symbol xmlns="http://www.w3.org/2000/svg" viewBox="0 0 24 24" id="tv">
    <g clip-path="url(#clip0_2_1214)">
      <path
        d="M23.346 2.41963C22.3651 3.00818 21.3188 3.40055 20.2071 3.66213C19.2916 2.68121 18.049 2.09265 16.6104 2.09265C13.8638 2.09265 11.7057 4.38148 11.7057 7.12807C11.7057 7.52044 11.7711 7.91281 11.8365 8.30519C7.71662 8.0436 4.11989 6.01636 1.70027 2.94279C1.3079 3.66213 1.04632 4.57766 1.04632 5.4932C1.04632 7.25886 1.89646 8.76295 3.26975 9.67848C2.48501 9.67848 1.70027 9.4169 1.04632 9.02453V9.15532C1.04632 11.5749 2.74659 13.6676 4.97003 14.1253C4.57766 14.2561 4.11989 14.3215 3.66213 14.3215C3.33515 14.3215 3.00817 14.3215 2.74659 14.2561C3.40054 16.2834 5.16621 17.7221 7.32425 17.7875C5.62398 19.1608 3.53133 19.9455 1.17711 19.9455C0.784741 19.9455 0.392371 19.9455 0 19.8801C2.15804 21.3188 4.77384 22.1689 7.52044 22.1689C16.6104 22.1689 21.515 14.4523 21.515 7.78202C21.515 7.58584 21.515 7.32426 21.515 7.12807C22.4959 6.40873 23.346 5.55859 24 4.51227C23.1499 4.90464 22.1689 5.16622 21.188 5.29701C22.1689 4.57767 22.9537 3.59674 23.346 2.41963Z"></path>
    </g>
    <defs>
      <clipPath id="clip0_2_1214">
        <rect width="24" height="24" fill="white"></rect>
      </clipPath>
    </defs>
  </symbol>
  <symbol xmlns="http://www.w3.org/2000/svg" viewBox="0 0 24 14" id="vk">
    <path
      d="M23.8692 12.5259C23.8692 12.4605 23.8038 12.3951 23.8038 12.3951C23.4114 11.6757 22.5613 10.6948 21.3842 9.64849C20.861 9.12533 20.5341 8.79835 20.4033 8.60216C20.1417 8.27519 20.0763 7.94821 20.2071 7.62124C20.3379 7.35966 20.6649 6.8365 21.3188 5.98636C21.6458 5.5286 21.9074 5.20162 22.1035 4.94004C23.5422 3.04358 24.1962 1.80108 24 1.27792L23.9346 1.14712C23.8692 0.950939 23.7384 0.885544 23.5422 0.820149C23.3461 0.754754 23.0845 0.754754 22.7575 0.820149H19.1608C19.0954 0.820149 19.03 0.820149 18.8992 0.820149C18.7684 0.820149 18.7684 0.885545 18.7684 0.885545H18.703L18.6376 0.95094C18.5722 0.95094 18.5722 1.01633 18.5068 1.08173C18.4414 1.14713 18.4414 1.21252 18.376 1.27792C17.9837 2.25884 17.5259 3.23977 17.0681 4.0899C16.7411 4.61306 16.4796 5.07083 16.218 5.4632C15.9564 5.85557 15.7602 6.11715 15.564 6.31334C15.3678 6.50952 15.2371 6.64031 15.1063 6.7711C14.9755 6.90189 14.8447 6.90189 14.7793 6.90189C14.7139 6.90189 14.6485 6.8365 14.5831 6.8365C14.4523 6.7711 14.3869 6.64031 14.3215 6.50952C14.2561 6.37873 14.1907 6.24794 14.1907 6.05176C14.1907 5.85557 14.1253 5.65939 14.1253 5.5286C14.1253 5.39781 14.1253 5.20162 14.1253 4.94004C14.1253 4.67846 14.1253 4.48227 14.1253 4.41688C14.1253 4.0899 14.1253 3.76293 14.1253 3.37056C14.1253 2.97819 14.1253 2.71661 14.1253 2.52042C14.1253 2.32424 14.1253 2.06266 14.1253 1.80108C14.1253 1.5395 14.1253 1.34331 14.0599 1.21252C14.0599 1.08173 13.9946 0.950939 13.9292 0.820149C13.8638 0.689359 13.7984 0.558569 13.6676 0.493174C13.5368 0.427779 13.406 0.362384 13.2752 0.296989C12.8174 0.166199 12.2943 0.166199 11.5749 0.166199C10.0055 0.166199 9.02452 0.231594 8.56676 0.493174C8.37057 0.558569 8.23978 0.689359 8.10899 0.885545C7.9782 1.08173 7.91281 1.14712 8.0436 1.21252C8.56676 1.27792 8.89373 1.4741 9.08992 1.73568L9.15531 1.86647C9.22071 1.99726 9.2861 2.19345 9.3515 2.45503C9.41689 2.71661 9.41689 3.04358 9.48229 3.37056C9.54768 3.95911 9.54768 4.48227 9.48229 4.94004C9.41689 5.39781 9.41689 5.72478 9.3515 5.92097C9.2861 6.18255 9.2861 6.37873 9.15531 6.50952C9.08992 6.64031 9.02452 6.7711 9.02452 6.7711C9.02452 6.8365 8.95913 6.8365 8.95913 6.8365C8.82834 6.90189 8.76294 6.90189 8.63215 6.90189C8.50136 6.90189 8.37057 6.8365 8.23978 6.70571C8.0436 6.57492 7.91281 6.44413 7.71662 6.24794C7.52044 6.05176 7.32425 5.79018 7.12807 5.39781C6.93188 5.00543 6.6703 4.61306 6.40872 4.0899L6.21253 3.69753C6.08174 3.43595 5.88556 3.10898 5.68937 2.65121C5.49319 2.19345 5.297 1.80108 5.10082 1.34331C5.03542 1.21252 4.90463 1.08173 4.77384 0.95094H4.70845C4.64305 0.885545 4.57766 0.885544 4.51226 0.820149C4.44687 0.820149 4.31608 0.754755 4.25068 0.754755H0.850136C0.457766 0.754755 0.196185 0.885544 0.0653951 1.01633V1.08173C0 1.14713 0 1.21252 0 1.27792C0 1.34331 0 1.4741 0.0653951 1.60489C0.588556 2.782 1.11172 3.89372 1.70027 5.00544C2.28883 6.11715 2.81199 6.96729 3.20436 7.62124C3.66213 8.27519 4.0545 8.92914 4.51226 9.5177C4.97003 10.1063 5.23161 10.4986 5.42779 10.6294C5.55858 10.8256 5.68937 10.891 5.75477 11.0218L6.08174 11.3488C6.27793 11.5449 6.60491 11.8065 6.93188 12.0681C7.32425 12.3297 7.71662 12.5913 8.23978 12.9182C8.69755 13.1798 9.2861 13.4414 9.87466 13.5722C10.5286 13.7684 11.1172 13.8338 11.7057 13.7684H13.1444C13.406 13.7684 13.6676 13.6376 13.7984 13.5068L13.8638 13.4414C13.9292 13.376 13.9292 13.3106 13.9292 13.1798C13.9292 13.049 13.9946 12.9836 13.9946 12.8528C13.9946 12.5259 13.9946 12.1989 14.0599 11.8719C14.1253 11.6103 14.1907 11.3488 14.2561 11.218C14.3215 11.0872 14.4523 10.9564 14.5177 10.8256C14.6485 10.6948 14.7139 10.6948 14.7139 10.6294C14.7793 10.6294 14.7793 10.564 14.8447 10.564C15.0409 10.4986 15.3025 10.564 15.564 10.7602C15.8256 10.9564 16.0872 11.218 16.3488 11.4795C16.6104 11.7411 16.8719 12.0681 17.1989 12.4605C17.5259 12.7875 17.8529 13.1144 18.049 13.2452L18.3106 13.376C18.5068 13.5068 18.703 13.5722 18.9646 13.6376C19.2262 13.703 19.4877 13.7684 19.6839 13.703L22.8883 13.6376C23.2153 13.6376 23.4768 13.5722 23.6076 13.5068C23.8038 13.376 23.8692 13.3106 23.9346 13.1798C24 13.049 24 12.9182 23.9346 12.7221C23.9346 12.7221 23.9346 12.5913 23.8692 12.5259Z"></path>
  </symbol>
  <symbol fill="none" xmlns="http://www.w3.org/2000/svg" viewBox="0 0 38 38" id="arrows">
    <g clip-path="url(#clip0_142_888)">
      <path
        d="M18.2132 0.326128L11.5439 6.99543C11.1091 7.43012 11.1091 8.13505 11.5439 8.56983L14.693 11.7189C14.9565 11.9824 15.3191 12.0865 15.6606 12.0304V15.6602H12.0307C12.088 15.3124 11.9769 14.9502 11.7194 14.6927L8.57027 11.5436C8.13587 11.1091 7.43056 11.1088 6.99586 11.5436L0.326568 18.2128C-0.108205 18.6475 -0.108205 19.3525 0.326568 19.7873L6.99586 26.4566C7.43027 26.891 8.13557 26.8913 8.57027 26.4566L11.7194 23.3074C11.9771 23.0497 12.0879 22.6874 12.0307 22.3399H15.6605V25.9697C15.3191 25.9136 14.9563 26.0177 14.6929 26.2811L11.5438 29.4302C11.1091 29.8649 11.1091 30.5698 11.5438 31.0046L18.2131 37.6739C18.6479 38.1087 19.3528 38.1087 19.7875 37.6739L26.4568 31.0046C26.8912 30.5701 26.8916 29.8649 26.4568 29.4302L23.3077 26.2811C23.0443 26.0177 22.6816 25.9136 22.3402 25.9697V22.3399H25.9701C25.9128 22.6878 26.0239 23.05 26.2815 23.3074L29.4306 26.4566C29.865 26.8911 30.5703 26.8914 31.005 26.4566L37.6743 19.7873C38.109 19.3526 38.109 18.6477 37.6743 18.2129L31.005 11.5436C30.5706 11.1091 29.8653 11.1089 29.4306 11.5436L26.2815 14.6928C26.0237 14.9505 25.9129 15.3128 25.9701 15.6603H22.3402V12.0305C22.6816 12.0865 23.0443 11.9825 23.3077 11.7191L26.4568 8.56998C26.8914 8.1355 26.8915 7.43035 26.4568 6.99557L19.7875 0.326276C19.3528 -0.108571 18.6479 -0.108571 18.2132 0.326128ZM22.5206 9.35736L22.0142 8.85097C21.3157 8.15235 20.1137 8.64694 20.1137 9.63813V16.7735C20.1137 17.3884 20.6121 17.8868 21.2269 17.8868H28.3623C29.3507 17.8868 29.8502 16.687 29.1495 15.9864L28.6431 15.48L30.2178 13.9052L35.3127 19.0001L30.2179 24.0951L28.6432 22.5203L29.1496 22.0139C29.8484 21.315 29.3532 20.1134 28.3623 20.1134H21.2269C20.6121 20.1134 20.1137 20.6118 20.1137 21.2267V28.362C20.1137 29.3538 21.3162 29.8474 22.0141 29.1492L22.5205 28.6428L24.0952 30.2175L19.0004 35.3124L13.9056 30.2174L15.4802 28.6427L15.9867 29.1491C16.6853 29.848 17.8871 29.3529 17.8871 28.362V21.2267C17.8871 20.6118 17.3886 20.1134 16.7738 20.1134H9.63842C8.65005 20.1134 8.15056 21.3132 8.85126 22.0138L9.35765 22.5202L7.78295 24.095L2.68806 19.0001L7.78288 13.9051L9.35758 15.4799L8.85118 15.9863C8.15234 16.6852 8.64753 17.8868 9.63842 17.8868H16.7738C17.3886 17.8868 17.8871 17.3884 17.8871 16.7735V9.63813C17.8871 8.65021 16.6874 8.1502 15.9867 8.85097L15.4802 9.35736L13.9056 7.78266L19.0004 2.68769L24.0952 7.78266L22.5206 9.35736Z"
        fill="white"></path>
    </g>
    <defs>
      <clipPath id="clip0_142_888">
        <rect width="38" height="38" fill="white"></rect>
      </clipPath>
    </defs>
  </symbol>
  <symbol fill="none" xmlns="http://www.w3.org/2000/svg" viewBox="0 0 8 7" id="Polygon">
    <path d="M4 7L0.102887 0.249999L7.89711 0.25L4 7Z" fill="#292929"></path>
  </symbol>
  <symbol fill="none" xmlns="http://www.w3.org/2000/svg" viewBox="0 0 24 40" id="left">
    <path d="M19 34L6.91422 21.9142C6.13317 21.1332 6.13317 19.8668 6.91421 19.0858L19 7"
      stroke="black" stroke-width="2" stroke-linecap="round"></path>
  </symbol>
  <symbol xmlns="http://www.w3.org/2000/svg" viewBox="0 0 35 25" id="express">
    <path
      d="M26.3553 15.9785C23.944 15.9785 21.9823 17.9402 21.9823 20.3515C21.9823 22.7628 23.944 24.7245 26.3553 24.7245C28.767 24.7245 30.7283 22.7628 30.7283 20.3515C30.7283 17.9402 28.7666 15.9785 26.3553 15.9785ZM26.3553 22.538C25.1495 22.538 24.1688 21.5573 24.1688 20.3515C24.1688 19.1456 25.1495 18.165 26.3553 18.165C27.5611 18.165 28.5418 19.1456 28.5418 20.3515C28.5418 21.5574 27.5611 22.538 26.3553 22.538Z"
      fill="currentColor"></path>
    <path
      d="M11.4143 15.9785C9.00296 15.9785 7.04129 17.9402 7.04129 20.3515C7.04129 22.7628 9.00296 24.7245 11.4143 24.7245C13.8256 24.7245 15.7873 22.7628 15.7873 20.3515C15.7873 17.9402 13.8256 15.9785 11.4143 15.9785ZM11.4143 22.538C10.2085 22.538 9.22778 21.5573 9.22778 20.3515C9.22778 19.1456 10.2085 18.165 11.4143 18.165C12.6198 18.165 13.6008 19.1456 13.6008 20.3515C13.6008 21.5574 12.6201 22.538 11.4143 22.538Z"
      fill="currentColor"></path>
    <path
      d="M29.3001 3.4616C29.1143 3.09245 28.7364 2.85956 28.3231 2.85956H22.5654V5.04606H27.6489L30.6258 10.9671L32.5798 9.98456L29.3001 3.4616Z"
      fill="currentColor"></path>
    <path d="M23.0756 19.2947H14.8034V21.4812H23.0756V19.2947Z" fill="currentColor"></path>
    <path
      d="M8.1345 19.2947H4.34464C3.74078 19.2947 3.25143 19.7841 3.25143 20.3879C3.25143 20.9918 3.74084 21.4811 4.34464 21.4811H8.13457C8.73843 21.4811 9.22779 20.9917 9.22779 20.3879C9.22779 19.7841 8.73837 19.2947 8.1345 19.2947Z"
      fill="currentColor"></path>
    <path
      d="M34.6166 12.6113L32.4662 9.84173C32.2596 9.57497 31.9407 9.41898 31.6029 9.41898H23.6586V1.76628C23.6586 1.16242 23.1692 0.673065 22.5654 0.673065H4.34464C3.74078 0.673065 3.25143 1.16248 3.25143 1.76628C3.25143 2.37007 3.74084 2.85949 4.34464 2.85949H21.4721V10.5122C21.4721 11.1161 21.9616 11.6054 22.5654 11.6054H31.0675L32.6597 13.6563V19.2946H29.635C29.0311 19.2946 28.5418 19.784 28.5418 20.3878C28.5418 20.9917 29.0312 21.481 29.635 21.481H33.7529C34.3567 21.481 34.8461 20.9916 34.8462 20.3878V13.2818C34.8462 13.0391 34.7653 12.803 34.6166 12.6113Z"
      fill="currentColor"></path>
    <path
      d="M8.06166 13.7556H3.0327C2.42884 13.7556 1.93949 14.245 1.93949 14.8488C1.93949 15.4527 2.42891 15.942 3.0327 15.942H8.0616C8.66546 15.942 9.15481 15.4526 9.15481 14.8488C9.15488 14.245 8.66546 13.7556 8.06166 13.7556Z"
      fill="currentColor"></path>
    <path
      d="M10.5761 9.45544H1.24706C0.643266 9.45544 0.153847 9.94486 0.153847 10.5487C0.153847 11.1526 0.643266 11.6419 1.24706 11.6419H10.5761C11.18 11.6419 11.6693 11.1525 11.6693 10.5487C11.6693 9.94493 11.18 9.45544 10.5761 9.45544Z"
      fill="currentColor"></path>
    <path
      d="M12.3617 5.15536H3.0327C2.42884 5.15536 1.93949 5.64478 1.93949 6.24857C1.93949 6.85244 2.42891 7.34179 3.0327 7.34179H12.3617C12.9656 7.34179 13.455 6.85237 13.455 6.24857C13.455 5.64478 12.9656 5.15536 12.3617 5.15536Z"
      fill="currentColor"></path>
  </symbol>
  <symbol fill="none" xmlns="http://www.w3.org/2000/svg" viewBox="0 0 68 68" id="Strong">
    <path
      d="M35.875 32.1811V21.8166H40.025C49.9181 21.8166 57.9666 13.768 57.9666 3.875C57.9666 2.8395 57.1271 2 56.0916 2H50.0646C43.0369 2 36.9411 6.06275 33.9996 11.9622C31.0576 6.06262 24.9615 2 17.9334 2H11.9084C10.8729 2 10.0334 2.8395 10.0334 3.875C10.0334 13.7681 18.082 21.8166 27.975 21.8166H32.125V32.1811C15.3249 33.1521 2 47.0815 2 64.125C2 65.1605 2.8395 66 3.875 66H64.125C65.1605 66 66 65.1605 66 64.125C66 47.0815 52.6751 33.1521 35.875 32.1811ZM50.0646 5.75H54.0933C53.1726 12.692 47.2145 18.0666 40.025 18.0666H35.9981C36.9174 11.1243 42.8751 5.75 50.0646 5.75ZM27.975 18.0666C20.7854 18.0666 14.8272 12.692 13.9067 5.75H17.9334C25.123 5.75 31.0811 11.1246 32.0016 18.0666H27.975ZM5.8105 62.25C6.7385 47.9209 17.2449 40.245 24.0917 37.6657V42.3778C24.0917 42.9499 23.8689 43.4879 23.4641 43.8926L17.4391 49.9176C15.1423 52.2145 15.1423 55.9519 17.4391 58.2487L21.44 62.25H5.8105ZM26.7434 62.25L20.0906 55.5973C19.2543 54.7609 19.2534 53.4065 20.0906 52.5692L26.1156 46.5444C27.2288 45.4314 27.8417 43.9516 27.8417 42.3778V36.5489C29.8536 36.1014 31.9191 35.875 34 35.875C38.9144 35.875 43.6772 37.1336 47.9062 39.5337L37.5223 49.9178C35.2226 52.2174 35.2178 55.9449 37.5223 58.2489L41.5234 62.25H26.7434ZM46.8266 62.25L40.1739 55.5971C39.3382 54.7616 39.3371 53.4062 40.1739 52.5692L51.1001 41.6431C57.6121 46.6034 61.6477 54.1131 62.1879 62.2499H46.8266V62.25Z"
      fill="black"></path>
  </symbol>
  <symbol xmlns="http://www.w3.org/2000/svg" viewBox="0 0 13 15" id="phone">
    <path
      d="M12.669 13.1545C12.4344 13.6557 11.9652 13.9063 11.4959 14.1569C10.9094 14.5327 10.4402 14.658 9.85367 14.658C9.03253 14.658 8.21139 14.2822 7.50756 14.0316C6.92103 13.781 6.45181 13.5304 5.86528 13.2798C4.223 12.1522 2.34611 10.1474 1.40767 8.51861C1.05575 7.89214 0.821139 7.39096 0.586528 6.76449C0.351917 5.88743 0 5.13567 0 4.13331C0 3.50684 0.117306 2.88037 0.469222 2.25389C0.703833 1.75272 0.938445 1.25154 1.40767 1.00095C1.75958 1.00095 2.34611 0.875656 2.69803 0.875656C2.81533 0.875656 2.81533 0.875656 2.93264 0.875656C3.16725 1.00095 3.28456 1.37683 3.40186 1.62742C3.63647 2.25389 3.98839 2.75507 4.223 3.38154C4.45761 3.63213 4.69222 3.88272 4.69222 4.13331C4.69222 4.75978 3.04994 5.63684 3.04994 6.13802C3.04994 6.38861 3.28456 6.76449 3.40186 7.01508C4.34031 8.7692 5.51336 10.0221 7.15564 11.0245C7.39025 11.1498 7.74217 11.4004 7.97678 11.4004C8.446 11.4004 9.26714 9.64626 9.85367 9.64626C10.0883 9.64626 10.3229 9.89685 10.5575 10.1474C11.0267 10.5233 11.6133 10.7739 12.0825 11.1498C12.3171 11.2751 12.669 11.4004 12.7863 11.651C12.7863 11.7763 12.7863 11.7763 12.7863 11.9016C12.9036 12.1522 12.7863 12.7786 12.669 13.1545Z"
      fill='currentColor'></path>
  </symbol>
  <symbol xmlns="http://www.w3.org/2000/svg" viewBox="0 0 56 40" id="logo">
    <path
      d="M12.5753 18.552C11.5673 18.552 10.6793 18.376 9.91133 18.024C9.14335 17.672 8.55135 17.184 8.13535 16.56C7.71935 15.92 7.51135 15.184 7.51135 14.352C7.51135 13.648 7.65534 13.008 7.94335 12.432C8.24734 11.856 8.64734 11.4 9.14334 11.064C9.65534 10.728 10.2153 10.56 10.8233 10.56C11.3833 10.56 11.8553 10.704 12.2393 10.992C12.6233 11.264 12.8633 11.648 12.9593 12.144C12.1273 12.144 11.4633 12.368 10.9673 12.816C10.4713 13.248 10.2233 13.84 10.2233 14.592C10.2233 15.28 10.4313 15.832 10.8473 16.248C11.2633 16.664 11.8153 16.872 12.5033 16.872C13.3513 16.872 14.0473 16.592 14.5913 16.032C15.1513 15.456 15.4313 14.736 15.4313 13.872C15.4313 13.12 15.2233 12.408 14.8073 11.736C14.3913 11.064 13.7673 10.248 12.9353 9.288C12.0713 8.296 11.4153 7.448 10.9673 6.744C10.5353 6.024 10.3193 5.24 10.3193 4.392C10.3193 3.56 10.5513 2.816 11.0153 2.16C11.4793 1.488 12.1193 0.960001 12.9353 0.576001C13.7513 0.192001 14.6713 0 15.6953 0C16.9913 0 18.0233 0.304001 18.7913 0.912001C19.5753 1.52 19.9673 2.336 19.9673 3.36C19.9673 4.032 19.7993 4.576 19.4633 4.992C19.1273 5.408 18.6873 5.616 18.1433 5.616C17.5353 5.616 17.0473 5.368 16.6793 4.872C16.9833 4.648 17.2233 4.352 17.3993 3.984C17.5753 3.616 17.6633 3.232 17.6633 2.832C17.6633 2.32 17.5113 1.912 17.2073 1.608C16.9033 1.304 16.4873 1.152 15.9593 1.152C15.3193 1.152 14.7913 1.384 14.3753 1.848C13.9753 2.296 13.7753 2.872 13.7753 3.576C13.7753 4.216 13.9593 4.816 14.3273 5.376C14.6953 5.92 15.2713 6.624 16.0553 7.488C16.6953 8.176 17.2073 8.768 17.5913 9.264C17.9913 9.76 18.3273 10.336 18.5993 10.992C18.8873 11.632 19.0313 12.328 19.0313 13.08C19.0313 14.104 18.7433 15.032 18.1673 15.864C17.6073 16.696 16.8313 17.352 15.8393 17.832C14.8633 18.312 13.7753 18.552 12.5753 18.552ZM22.7588 18.264C21.9908 18.264 21.3668 18.024 20.8868 17.544C20.4228 17.064 20.1908 16.344 20.1908 15.384C20.1908 14.984 20.2548 14.464 20.3828 13.824L22.0148 6.12H25.4708L23.7428 14.28C23.6948 14.52 23.6708 14.744 23.6708 14.952C23.6708 15.608 23.9108 15.936 24.3908 15.936C24.8388 15.936 25.2228 15.752 25.5428 15.384C25.8628 15 26.1188 14.48 26.3108 13.824L27.9428 6.12H31.3988L29.6708 14.28C29.6068 14.52 29.5748 14.776 29.5748 15.048C29.5748 15.368 29.6468 15.6 29.7908 15.744C29.9508 15.872 30.2068 15.936 30.5588 15.936C31.0068 15.936 31.3908 15.744 31.7108 15.36C32.0468 14.976 32.3108 14.464 32.5028 13.824H33.5108C32.9188 15.552 32.1828 16.728 31.3028 17.352C30.4388 17.96 29.5668 18.264 28.6868 18.264C27.9988 18.264 27.4468 18.072 27.0308 17.688C26.6308 17.304 26.3908 16.736 26.3108 15.984C25.7668 16.864 25.1908 17.464 24.5828 17.784C23.9908 18.104 23.3828 18.264 22.7588 18.264ZM34.132 6.12H37.588L37.276 7.608C37.82 7.128 38.308 6.76 38.74 6.504C39.188 6.248 39.668 6.12 40.18 6.12C40.692 6.12 41.092 6.296 41.38 6.648C41.684 7 41.836 7.424 41.836 7.92C41.836 8.384 41.684 8.792 41.38 9.144C41.076 9.496 40.652 9.672 40.108 9.672C39.756 9.672 39.516 9.592 39.388 9.432C39.276 9.256 39.188 9.008 39.124 8.688C39.076 8.48 39.028 8.328 38.98 8.232C38.932 8.136 38.844 8.088 38.716 8.088C38.38 8.088 38.092 8.16 37.852 8.304C37.628 8.432 37.332 8.664 36.964 9L35.044 18.12H31.588L34.132 6.12ZM39.3634 24.12C38.6114 24.12 37.9554 23.872 37.3954 23.376C36.8194 22.896 36.5314 22.28 36.5314 21.528C36.5314 20.84 36.7074 20.272 37.0594 19.824C37.4114 19.376 37.8674 19.016 38.4274 18.744C38.9874 18.488 39.7314 18.216 40.6594 17.928L43.5634 4.224C43.8834 2.688 44.4434 1.624 45.2434 1.032C46.0594 0.440001 46.9554 0.144001 47.9314 0.144001C48.6834 0.144001 49.3394 0.392001 49.8994 0.888001C50.4754 1.368 50.7634 1.984 50.7634 2.736C50.7634 3.104 50.7394 3.432 50.6914 3.72H49.5634C49.5954 3.368 49.6114 3.152 49.6114 3.072C49.6114 2.816 49.5234 2.616 49.3474 2.472C49.1714 2.328 48.9554 2.256 48.6994 2.256C48.3634 2.256 48.0354 2.408 47.7154 2.712C47.3954 3 47.1634 3.504 47.0194 4.224L46.6114 6.12H48.3634L48.1954 7.08H46.4194L43.6594 20.04C43.3394 21.592 42.7874 22.656 42.0034 23.232C41.2194 23.824 40.3394 24.12 39.3634 24.12ZM38.8114 21.984C39.4514 21.984 39.9074 21.36 40.1794 20.112L40.4914 18.72C39.6434 19.008 38.9954 19.336 38.5474 19.704C38.0834 20.088 37.8514 20.584 37.8514 21.192C37.8514 21.384 37.9474 21.56 38.1394 21.72C38.3314 21.896 38.5554 21.984 38.8114 21.984ZM3.36 39.264C2.272 39.264 1.44 39 0.864005 38.472C0.288 37.928 0 37.168 0 36.192C0 35.712 0.056 35.256 0.168 34.824L2.73601 22.8L6.28801 22.32L5.13601 27.72C5.58401 27.448 5.952 27.272 6.24001 27.192C6.52801 27.096 6.81601 27.048 7.10401 27.048C8.99201 27.048 9.93603 28.416 9.93603 31.152C9.93603 32.256 9.72001 33.44 9.288 34.704C8.872 35.952 8.168 37.024 7.17601 37.92C6.20001 38.816 4.928 39.264 3.36 39.264ZM4.70401 36.936C5.20001 36.936 5.66401 36.632 6.09601 36.024C6.52801 35.4 6.872 34.632 7.12801 33.72C7.38401 32.792 7.51201 31.904 7.51201 31.056C7.51201 30.416 7.40001 29.872 7.17601 29.424C6.95201 28.976 6.64001 28.752 6.24001 28.752C6.00001 28.752 5.728 28.792 5.42401 28.872C5.136 28.936 4.93601 29.04 4.82401 29.184L3.504 35.28C3.456 35.472 3.432 35.656 3.432 35.832C3.432 36.568 3.85601 36.936 4.70401 36.936ZM14.336 39.216C13.152 39.216 12.216 38.912 11.528 38.304C10.84 37.696 10.496 36.736 10.496 35.424C10.496 34.336 10.72 33.128 11.168 31.8C11.616 30.472 12.336 29.328 13.328 28.368C14.32 27.392 15.568 26.904 17.072 26.904C19.12 26.904 20.144 28.184 20.144 30.744V30.768C20.192 30.784 20.28 30.792 20.408 30.792C20.936 30.792 21.544 30.656 22.232 30.384C22.92 30.096 23.544 29.752 24.104 29.352L24.32 30C23.856 30.496 23.248 30.92 22.496 31.272C21.76 31.608 20.952 31.848 20.072 31.992C19.944 33.448 19.616 34.72 19.088 35.808C18.56 36.896 17.88 37.736 17.048 38.328C16.216 38.92 15.312 39.216 14.336 39.216ZM15.296 37.056C15.68 37.056 16.064 36.84 16.448 36.408C16.832 35.96 17.168 35.36 17.456 34.608C17.744 33.84 17.952 32.992 18.08 32.064C17.648 31.968 17.432 31.632 17.432 31.056C17.432 30.4 17.68 29.968 18.176 29.76C18.144 29.232 18.064 28.872 17.936 28.68C17.808 28.472 17.584 28.368 17.264 28.368C16.736 28.368 16.224 28.752 15.728 29.52C15.232 30.288 14.832 31.208 14.528 32.28C14.224 33.352 14.072 34.296 14.072 35.112C14.072 35.88 14.16 36.4 14.336 36.672C14.512 36.928 14.832 37.056 15.296 37.056ZM24.2589 39.264C23.3469 39.264 22.5869 38.952 21.9789 38.328C21.3709 37.704 21.0669 36.728 21.0669 35.4C21.0669 34.216 21.2989 32.976 21.7629 31.68C22.2429 30.368 22.9469 29.264 23.8749 28.368C24.8189 27.456 25.9389 27 27.2349 27C27.8909 27 28.3789 27.112 28.6989 27.336C29.0189 27.56 29.1789 27.856 29.1789 28.224V28.392L29.4429 27.12H32.8989L31.1709 35.28C31.1069 35.52 31.0749 35.776 31.0749 36.048C31.0749 36.736 31.4029 37.08 32.0589 37.08C32.5069 37.08 32.8909 36.872 33.2109 36.456C33.5469 36.04 33.8109 35.496 34.0029 34.824H35.0109C34.4189 36.552 33.6829 37.728 32.8029 38.352C31.9389 38.96 31.0669 39.264 30.1869 39.264C29.5149 39.264 28.9709 39.08 28.5549 38.712C28.1549 38.328 27.9149 37.776 27.8349 37.056C27.3709 37.712 26.8509 38.248 26.2749 38.664C25.7149 39.064 25.0429 39.264 24.2589 39.264ZM25.8189 36.936C26.2189 36.936 26.6109 36.752 26.9949 36.384C27.3949 36 27.6669 35.48 27.8109 34.824L28.9629 29.4C28.9629 29.192 28.8829 28.992 28.7229 28.8C28.5629 28.592 28.3149 28.488 27.9789 28.488C27.3389 28.488 26.7629 28.864 26.2509 29.616C25.7389 30.352 25.3389 31.248 25.0509 32.304C24.7629 33.344 24.6189 34.264 24.6189 35.064C24.6189 35.864 24.7309 36.376 24.9549 36.6C25.1949 36.824 25.4829 36.936 25.8189 36.936ZM35.6437 27.12H39.0997L38.7877 28.608C39.3317 28.128 39.8197 27.76 40.2517 27.504C40.6997 27.248 41.1797 27.12 41.6917 27.12C42.2037 27.12 42.6037 27.296 42.8917 27.648C43.1957 28 43.3477 28.424 43.3477 28.92C43.3477 29.384 43.1957 29.792 42.8917 30.144C42.5877 30.496 42.1637 30.672 41.6197 30.672C41.2677 30.672 41.0277 30.592 40.8997 30.432C40.7877 30.256 40.6997 30.008 40.6357 29.688C40.5877 29.48 40.5397 29.328 40.4917 29.232C40.4437 29.136 40.3557 29.088 40.2277 29.088C39.8917 29.088 39.6037 29.16 39.3637 29.304C39.1397 29.432 38.8437 29.664 38.4757 30L36.5557 39.12H33.0997L35.6437 27.12ZM45.9152 39.264C45.0032 39.264 44.2432 38.952 43.6352 38.328C43.0272 37.704 42.7232 36.728 42.7232 35.4C42.7232 34.216 42.9552 32.976 43.4192 31.68C43.8992 30.368 44.6032 29.264 45.5312 28.368C46.4752 27.456 47.5952 27 48.8912 27C49.5472 27 50.0352 27.112 50.3552 27.336C50.6752 27.56 50.8352 27.856 50.8352 28.224V28.32L52.0112 22.8L55.5632 22.32L52.8032 35.28C52.7392 35.52 52.7072 35.752 52.7072 35.976C52.7072 36.616 53.0352 36.936 53.6912 36.936C53.9792 36.936 54.2352 36.888 54.4592 36.792C54.3952 37.592 54.1072 38.208 53.5952 38.64C53.0992 39.056 52.5072 39.264 51.8192 39.264C51.1792 39.264 50.6352 39.104 50.1872 38.784C49.7552 38.448 49.4672 37.944 49.3232 37.272C48.3632 38.6 47.2272 39.264 45.9152 39.264ZM47.4752 36.936C47.8272 36.936 48.1792 36.784 48.5312 36.48C48.8992 36.176 49.1712 35.752 49.3472 35.208L49.4432 34.824L50.6192 29.328C50.4752 28.768 50.1472 28.488 49.6352 28.488C48.9952 28.488 48.4192 28.864 47.9072 29.616C47.3952 30.352 46.9952 31.248 46.7072 32.304C46.4192 33.344 46.2752 34.264 46.2752 35.064C46.2752 35.864 46.3872 36.376 46.6112 36.6C46.8512 36.824 47.1392 36.936 47.4752 36.936Z"
      fill="currentColor"></path>
  </symbol>
  <symbol fill="none" xmlns="http://www.w3.org/2000/svg" viewBox="0 0 24 40" id="right">
    <path d="M5 6L17.0858 18.0858C17.8668 18.8668 17.8668 20.1332 17.0858 20.9142L5 33"
      stroke="black" stroke-width="2" stroke-linecap="round"></path>
  </symbol>
  <symbol fill="none" xmlns="http://www.w3.org/2000/svg" viewBox="0 0 68 68" id="Unique">
    <path
      d="M67.58 64.7842C67.4752 64.6494 64.9503 61.4478 59.6006 58.2906C56.9903 56.75 53.3914 55.0512 48.7861 53.8092C49.7611 50.514 50.8711 45.7687 51.3499 40.1027C51.8914 33.6964 51.5072 27.4363 50.2076 21.4964C48.5791 14.0532 45.5041 7.10361 41.0679 0.840703C40.6944 0.313437 40.0884 0 39.4422 0C38.7961 0 38.1901 0.313305 37.8166 0.840703C36.4181 2.81509 35.155 4.85802 34.0297 6.96283C32.9044 4.85788 31.6415 2.81509 30.2428 0.840703C29.8694 0.313437 29.2633 0 28.6172 0C27.9711 0 27.3651 0.313305 26.9916 0.840703C22.5554 7.10348 19.4804 14.053 17.8518 21.4965C16.5523 27.4364 16.168 33.6964 16.7095 40.1029C17.2019 45.9283 18.3614 50.7807 19.3554 54.0843C15.1095 55.2884 11.6855 56.8436 9.12061 58.2632C3.46718 61.3926 0.622734 64.5502 0.504398 64.683C-0.0175553 65.2692 -0.146649 66.1072 0.174492 66.8232C0.495632 67.5391 1.20737 68 1.99216 68H66.0078C66.7688 68 67.4633 67.5664 67.7976 66.8828C68.1317 66.1992 68.0474 65.3849 67.58 64.7842ZM20.9628 26.9581L34.3264 17.8771C34.7222 19.1401 35.0719 20.4201 35.3722 21.7176L20.5296 31.8038C20.6034 30.2441 20.7425 28.6243 20.9628 26.9581ZM21.9738 21.4539C23.1906 16.3163 25.2642 10.9068 28.6188 5.57441C30.3273 8.279 31.7667 11.0904 32.9405 14.0015L21.9738 21.4539ZM20.4961 36.6438L36.179 25.9865C36.8241 30.3597 36.9548 34.9112 36.5666 39.6274C36.1538 44.6411 35.1975 48.9293 34.323 52.0159C30.2386 52.0394 26.5399 52.4701 23.2384 53.1424C22.2965 50.0504 21.1538 45.3767 20.6797 39.7673C20.5957 38.7749 20.5323 37.7314 20.4961 36.6438ZM34.6735 55.9971C45.4742 55.9971 52.9886 59.0514 57.3905 61.6136C58.8019 62.4352 59.9934 63.2602 60.9717 64.0156H7.43402C12.1776 60.6701 21.2129 55.9971 34.6735 55.9971ZM39.444 5.57441C45.7576 15.5693 48.4302 27.0098 47.3915 39.6274C46.9364 45.1541 45.8212 49.7995 44.8829 52.9247C42.8862 52.5547 40.7358 52.2795 38.4326 52.133C39.2726 48.9847 40.1222 44.8692 40.5251 40.1029C41.0665 33.6965 40.6823 27.4364 39.3827 21.4965C38.6317 18.0636 37.5721 14.7359 36.214 11.532C37.1285 9.54749 38.1975 7.55557 39.444 5.57441Z"
      fill="black"></path>
  </symbol>
  <symbol fill="none" xmlns="http://www.w3.org/2000/svg" viewBox="0 0 32 32" id="modal3">
    <path
      d="M26.5938 9.48438H5.45312C4.6765 9.48438 4.04688 10.114 4.04688 10.8906C4.04688 11.6673 4.6765 12.2969 5.45312 12.2969H26.5938C27.3704 12.2969 28 11.6673 28 10.8906C28 10.114 27.3704 9.48438 26.5938 9.48438Z"
      fill="black"></path>
    <path
      d="M27.0625 4H4.9375C4.41972 4 4 4.41972 4 4.9375C4 5.45528 4.41972 5.875 4.9375 5.875H27.0625C27.5803 5.875 28 5.45528 28 4.9375C28 4.41972 27.5803 4 27.0625 4Z"
      fill="black"></path>
    <path
      d="M25.6562 23.3125H6.39062C5.09622 23.3125 4.04688 24.3618 4.04688 25.6562C4.04688 26.9507 5.09622 28 6.39062 28H25.6562C26.9507 28 28 26.9507 28 25.6562C28 24.3618 26.9507 23.3125 25.6562 23.3125Z"
      fill="black"></path>
    <path
      d="M26.125 15.9062H5.92188C4.88636 15.9062 4.04688 16.7457 4.04688 17.7812C4.04688 18.8168 4.88636 19.6562 5.92188 19.6562H26.125C27.1605 19.6562 28 18.8168 28 17.7812C28 16.7457 27.1605 15.9062 26.125 15.9062Z"
      fill="black"></path>
  </symbol>
  <symbol fill="none" xmlns="http://www.w3.org/2000/svg" viewBox="0 0 35 35" id="design">
    <path
      d="M34.5485 0.451516C34.3352 0.238139 34.0379 0.130367 33.7376 0.15814C33.6123 0.16952 30.6209 0.454022 26.5183 1.83108C13.1663 5.94322 4.32974 18.8899 0.220651 28.2558C-0.0379964 28.8743 0.484582 29.7021 1.26676 29.6337L5.80535 29.1922L5.36386 33.7304C5.31549 34.3828 5.94883 35.0699 6.74184 34.7764C23.0466 27.3472 32.9919 15.976 34.8419 1.26228C34.8694 0.961858 34.7619 0.664757 34.5485 0.451516ZM21.4105 22.7881C19.6089 24.4277 17.8329 25.8372 16.1913 27.0245V9.72113C17.9122 8.31082 19.6957 7.16773 21.4105 6.24486V22.7881ZM11.4936 30.0991C9.88016 31.0471 8.5183 31.7389 7.55511 32.1956L7.94776 28.1597C8.00602 27.6346 7.52022 26.9703 6.83797 27.05L2.8034 27.4424C4.16641 24.5507 7.83733 17.8176 14.159 11.5514V28.4322C13.1849 29.0781 12.286 29.6336 11.4936 30.0991ZM31.2232 7.89084C30.0298 11.4275 27.7123 16.5335 23.4428 20.8442V5.2325C26.2239 3.88932 30.4729 2.68533 32.6337 2.36608C32.4266 3.57955 32.0109 5.55616 31.2232 7.89084Z"
      fill="currentColor"></path>
  </symbol>
  <symbol viewBox="0 0 9 7" fill="none" xmlns="http://www.w3.org/2000/svg"
    id='polygon'>
    <path d="M4.5 7L0.602887 0.249999L8.39711 0.25L4.5 7Z" fill="#292929" />
  </symbol>
  <symbol width="10" height="8" viewBox="0 0 10 8" fill="none" xmlns="http://www.w3.org/2000/svg" id='galochka'>
    <g clip-path="url(#clip0_258_343)">
    <path d="M9.44954 0.551587C8.80734 -0.184046 7.70642 -0.184046 7.06422 0.459633L3.66973 3.86193L2.93578 3.1263C2.29358 2.48262 1.19266 2.48262 0.550461 3.1263H0.458717C-0.183484 3.76998 -0.183484 4.87343 0.458717 5.5171L2.47707 7.54009C2.84404 7.90791 3.30275 7.99986 3.66973 7.99986C4.12844 7.99986 4.49542 7.81595 4.86239 7.54009L9.44954 2.94239C10.0917 2.29871 10.0917 1.19526 9.44954 0.551587Z" fill="#FEDB3F"/>
    </g>
    <defs>
    <clipPath id="clip0_258_343">
    <rect width="10" height="8" fill="white"/>
    </clipPath>
    </defs>
    </symbol>
</svg>